<svg width="16" height="16" viewBox="0 0 10 10" fill="none" xmlns="http://www.w3.org/2000/svg">
<path d="M5.3871 7.19231C5.3871 7.36031 5.33097 7.51723 5.23574 7.64646C5.10723 7.89985 5.2489 8 5.3871 8L6.06452 8C6.38387 8 6.64516 7.68846 6.64516 7.30769L6.64516 6.03846C6.64516 5.87415 6.72877 5.70431 6.94168 5.858C7.05006 5.97154 7.18129 6.03846 7.32258 6.03846C7.6969 6.03846 8 5.57369 8 5C8 4.42631 7.6969 3.96154 7.32258 3.96154C7.20645 3.96154 7.09961 4.00538 7.004 4.07923C6.74348 4.31323 6.64516 4.142 6.64516 3.96154L6.64516 2.69231C6.64516 2.31154 6.38387 2 6.06452 2L5.3871 2C5.23574 2 5.09213 2.11723 5.29265 2.42831C5.35032 2.54185 5.3871 2.66923 5.3871 2.80769C5.3871 3.25354 4.9969 3.61538 4.51613 3.61538C4.03536 3.61538 3.64516 3.25354 3.64516 2.80769C3.64516 2.63969 3.70129 2.48277 3.79652 2.35354C3.92503 2.10015 3.78336 2 3.64516 2L2.58065 2C2.26129 2 2 2.31154 2 2.69231L2 3.96154C2 4.142 2.09832 4.31323 2.35884 4.07369C2.45443 4.00227 2.56462 3.96347 2.67742 3.96154C3.05174 3.96154 3.35484 4.42631 3.35484 5C3.35484 5.57369 3.05174 6.03846 2.67742 6.03846C2.53613 6.03846 2.4049 5.97154 2.29652 5.858C2.08361 5.70431 2 5.87415 2 6.03846L2 7.30769C2 7.68846 2.26129 8 2.58065 8L3.64516 8C3.79652 8 3.94013 7.88277 3.73961 7.57169C3.67938 7.45804 3.64669 7.32674 3.64516 7.19231C3.64516 6.74646 4.03536 6.38462 4.51613 6.38462C4.9969 6.38462 5.3871 6.74646 5.3871 7.19231Z" fill="#01D9C1"/>
</svg>
