<svg width="16" height="16" viewBox="0 0 10 10" fill="none" xmlns="http://www.w3.org/2000/svg">
<mask id="mask0_134_115" style="mask-type:luminance" maskUnits="userSpaceOnUse" x="2" y="2" width="7" height="6">
<path d="M8.39906 2H2V8H8.39906V2Z" fill="white"/>
</mask>
<g mask="url(#mask0_134_115)">
<path d="M8.33732 6.66169L6.2055 7.97885C6.18588 7.99101 6.16336 7.9977 6.14028 7.99822C6.11721 7.99875 6.09441 7.99309 6.07425 7.98184C6.0541 7.97059 6.03732 7.95415 6.02566 7.93422C6.014 7.9143 6.00787 7.89162 6.00793 7.86854V7.19843C6.00793 7.16402 5.99426 7.13102 5.96993 7.10669C5.9456 7.08236 5.9126 7.06869 5.87819 7.06869H4.19882C4.18174 7.06882 4.16481 7.06557 4.14899 7.05913C4.13318 7.05268 4.11879 7.04317 4.10667 7.03114C4.09455 7.01911 4.08493 7.0048 4.07837 6.98903C4.0718 6.97327 4.06842 6.95636 4.06842 6.93928V6.16413C4.06838 6.14711 4.07169 6.13025 4.07818 6.11451C4.08466 6.09877 4.09419 6.08446 4.10621 6.07241C4.11823 6.06036 4.13251 6.0508 4.14823 6.04427C4.16395 6.03775 4.18081 6.03439 4.19783 6.03439H5.8772C5.91161 6.03439 5.94461 6.02072 5.96894 5.99639C5.99327 5.97206 6.00694 5.93906 6.00694 5.90465V5.2329C6.00689 5.20981 6.01301 5.18714 6.02467 5.16721C6.03633 5.14729 6.05311 5.13085 6.07326 5.1196C6.09342 5.10835 6.11622 5.10269 6.1393 5.10321C6.16237 5.10374 6.18489 5.11043 6.20451 5.12259L8.33633 6.43975C8.35512 6.45138 8.37062 6.46762 8.38138 6.48692C8.39213 6.50623 8.39778 6.52796 8.39778 6.55006C8.39778 6.57216 8.39213 6.59389 8.38138 6.6132C8.37062 6.6325 8.35512 6.64874 8.33633 6.66037" fill="#01D9C1"/>
<path d="M2.12953 6.03445H2.90434C2.92139 6.03441 2.93828 6.03774 2.95404 6.04424C2.9698 6.05075 2.98412 6.0603 2.99618 6.07236C3.00823 6.08441 3.01779 6.09873 3.02429 6.11449C3.0308 6.13025 3.03413 6.14715 3.03408 6.1642V6.93934C3.03413 6.95639 3.0308 6.97329 3.02429 6.98905C3.01779 7.00481 3.00823 7.01913 2.99618 7.03118C2.98412 7.04324 2.9698 7.05279 2.95404 7.0593C2.93828 7.0658 2.92139 7.06913 2.90434 7.06909H2.12953C2.11248 7.06913 2.09559 7.0658 2.07983 7.0593C2.06407 7.05279 2.04975 7.04324 2.03769 7.03118C2.02563 7.01913 2.01608 7.00481 2.00957 6.98905C2.00307 6.97329 1.99974 6.95639 1.99979 6.93934V6.1642C1.99974 6.14715 2.00307 6.13025 2.00957 6.11449C2.01608 6.09873 2.02563 6.08441 2.03769 6.07236C2.04975 6.0603 2.06407 6.05075 2.07983 6.04424C2.09559 6.03774 2.11248 6.03441 2.12953 6.03445Z" fill="#01D9C1"/>
<path d="M5.88093 3.33856L3.74945 2.02008C3.72983 2.00792 3.70731 2.00123 3.68423 2.0007C3.66115 2.00018 3.63835 2.00584 3.6182 2.01709C3.59804 2.02834 3.58126 2.04478 3.5696 2.06471C3.55794 2.08463 3.55182 2.10731 3.55188 2.13039V2.80214C3.55188 2.81918 3.54852 2.83605 3.542 2.85179C3.53548 2.86753 3.52592 2.88184 3.51388 2.89388C3.50183 2.90593 3.48753 2.91549 3.47178 2.92201C3.45604 2.92853 3.43917 2.93188 3.42214 2.93188H2.12968C2.09527 2.93188 2.06227 2.94555 2.03794 2.96988C2.01361 2.99421 1.99994 3.02721 1.99994 3.06162V3.83644C1.99994 3.87085 2.01361 3.90385 2.03794 3.92818C2.06227 3.95251 2.09527 3.96618 2.12968 3.96618H3.42181C3.45622 3.96618 3.48922 3.97985 3.51355 4.00418C3.53788 4.02852 3.55155 4.06152 3.55155 4.09592V4.76636C3.5516 4.7894 3.55778 4.81202 3.56947 4.83188C3.58115 4.85174 3.59792 4.86812 3.61804 4.87936C3.63816 4.89059 3.6609 4.89626 3.68394 4.89579C3.70698 4.89532 3.72948 4.88872 3.74912 4.87667L5.8806 3.55786C5.89939 3.54623 5.9149 3.52999 5.92565 3.51069C5.93641 3.49138 5.94205 3.46965 5.94205 3.44755C5.94205 3.42545 5.93641 3.40372 5.92565 3.38442C5.9149 3.36511 5.89939 3.34887 5.8806 3.33724" fill="#01D9C1"/>
</g>
</svg>
