<svg width="16" height="16" viewBox="0 0 10 10" fill="none" xmlns="http://www.w3.org/2000/svg">
<path d="M4.50827 3.01251C3.12286 3.01251 1.99994 4.13543 1.99994 5.50626C1.99994 6.87709 3.12286 8.00001 4.50827 8.00001C5.89369 8.00001 7.01661 6.87709 7.01661 5.50626C7.01661 4.13543 5.89369 3.01251 4.50827 3.01251ZM4.79994 5.97293V6.49793C4.79994 6.65834 4.66869 6.78959 4.50827 6.78959C4.34786 6.78959 4.21661 6.65834 4.21661 6.49793V5.97293C3.91036 5.85626 3.69161 5.56459 3.69161 5.21459C3.69161 4.76251 4.05619 4.39793 4.50827 4.39793C4.96036 4.39793 5.32494 4.76251 5.32494 5.21459C5.32494 5.55001 5.10619 5.85626 4.79994 5.97293Z" fill="#01D9C1"/>
<path d="M4.50808 5.44793C4.63695 5.44793 4.74142 5.34346 4.74142 5.2146C4.74142 5.08573 4.63695 4.98126 4.50808 4.98126C4.37922 4.98126 4.27475 5.08573 4.27475 5.2146C4.27475 5.34346 4.37922 5.44793 4.50808 5.44793Z" fill="#01D9C1"/>
<path d="M3.23952 2.70625C3.29786 2.07917 3.83744 1.58333 4.49369 1.58333H4.50827C5.16452 1.58333 5.68952 2.07917 5.76244 2.70625C5.96661 2.79375 6.17077 2.91042 6.34577 3.05625V2.82292C6.34577 1.81667 5.51452 1 4.50827 1H4.49369C3.47286 1 2.65619 1.81667 2.65619 2.82292V3.05625C2.83119 2.925 3.02077 2.80833 3.23952 2.70625Z" fill="#01D9C1"/>
</svg>
