<svg width="16" height="16" viewBox="0 0 10 10" fill="none" xmlns="http://www.w3.org/2000/svg">
<path d="M7.90754 3.11703L6.45256 2.0178C6.39416 1.97344 6.3163 2.0178 6.3163 2.08681V2.5403L3.96107 2.67832L3.61071 2.69804L3.52311 2.70297L3.40633 2.71283C3.3674 2.71776 3.3236 2.72269 3.28467 2.73255C3.24574 2.7424 3.20195 2.74733 3.16302 2.75719C2.84672 2.84099 2.56448 3.0283 2.3601 3.27476C2.15572 3.52123 2.03406 3.83177 2.00487 4.14231C2 4.18174 2 4.22118 2 4.26061C2 4.30005 2 4.34441 2 4.36906L2.00973 4.54651V4.5613C2.0292 4.75354 2.18491 4.90142 2.3747 4.90142C2.56448 4.90142 2.72019 4.75354 2.72993 4.5613V4.54651L2.73966 4.36906C2.73966 4.33455 2.74453 4.31976 2.74939 4.30005C2.75426 4.28033 2.75426 4.26061 2.75912 4.2409C2.77372 4.16203 2.80779 4.09302 2.84185 4.02401C2.87591 3.955 2.92944 3.89585 2.98297 3.84656C3.09002 3.74304 3.23114 3.68389 3.3674 3.66417C3.382 3.65924 3.40146 3.66417 3.42092 3.65924C3.44039 3.65924 3.45499 3.65431 3.47445 3.65924H3.52798L3.61557 3.66417L3.96594 3.68389L6.3163 3.83177V4.28526C6.3163 4.3592 6.39903 4.39863 6.45256 4.35427L7.90268 3.25505C7.95134 3.22054 7.95134 3.15153 7.90754 3.11703ZM2.09732 6.88297L3.54745 7.9822C3.60584 8.02656 3.6837 7.9822 3.6837 7.91319V7.4597L6.03893 7.32168L6.38929 7.30196L6.47689 7.29703L6.59367 7.28717C6.6326 7.28224 6.6764 7.27731 6.71533 7.26745C6.75426 7.2576 6.79805 7.25267 6.83698 7.24281C7.15328 7.15901 7.43552 6.9717 7.6399 6.72524C7.84428 6.47877 7.96594 6.16823 7.99513 5.85769C8 5.81826 8 5.77882 8 5.73939C8 5.69995 8 5.65559 8 5.63094L7.99027 5.45349V5.4387C7.98054 5.24646 7.82482 5.09858 7.63504 5.09858C7.44526 5.09858 7.28954 5.24646 7.27981 5.4387V5.45349L7.27007 5.63094C7.27007 5.66545 7.26521 5.68024 7.26034 5.69995C7.25547 5.71967 7.25547 5.73939 7.25061 5.7591C7.23601 5.83797 7.20195 5.90698 7.16788 5.97599C7.13382 6.045 7.08029 6.10415 7.02676 6.15344C6.91971 6.25696 6.77859 6.31611 6.64234 6.33583C6.62774 6.34076 6.60827 6.33583 6.58881 6.34076C6.56934 6.34076 6.55474 6.34568 6.53528 6.34076H6.48175L6.38929 6.3309L6.03893 6.31118L3.68856 6.16823V5.71474C3.68856 5.6408 3.60584 5.60137 3.55231 5.64573L2.09732 6.74495C2.05353 6.77946 2.05353 6.84847 2.09732 6.88297Z" fill="#01D9C1"/>
</svg>
