<svg width="16" height="16" viewBox="0 0 10 10" fill="none" xmlns="http://www.w3.org/2000/svg">
<path d="M7.87668 4.98605C7.87668 5.33241 7.5959 5.61318 7.24954 5.61318H4.93862C4.59227 5.61318 4.31149 5.33241 4.31149 4.98605V4.98605C4.31149 4.63969 4.59227 4.35892 4.93863 4.35892H7.24954C7.5959 4.35892 7.87668 4.63969 7.87668 4.98605V4.98605Z" fill="#01D9C1"/>
<path d="M3.00136 7C2.53949 6.99971 2.0919 6.83978 1.73444 6.54729C1.37697 6.25481 1.1316 5.84775 1.03988 5.39507C0.948166 4.94239 1.01575 4.47192 1.23117 4.06336C1.4466 3.6548 1.79664 3.33327 2.22198 3.15323C2.71054 2.95027 3.25957 2.94888 3.74916 3.14937C4.23874 3.34986 4.6291 3.73594 4.83498 4.22328C5.04086 4.71062 5.04553 5.25963 4.84797 5.7504C4.65041 6.24118 4.26668 6.63384 3.78057 6.84263C3.53407 6.94697 3.26904 7.00049 3.00136 7ZM3.00136 4.29714C2.86276 4.29714 2.72727 4.33824 2.61203 4.41525C2.49678 4.49225 2.40696 4.6017 2.35392 4.72975C2.30088 4.8578 2.287 4.99871 2.31404 5.13464C2.34108 5.27058 2.40783 5.39545 2.50583 5.49346C2.60384 5.59146 2.72871 5.65821 2.86465 5.68525C3.00059 5.71229 3.14149 5.69841 3.26954 5.64537C3.39759 5.59233 3.50704 5.50251 3.58405 5.38726C3.66105 5.27202 3.70215 5.13653 3.70215 4.99793C3.70197 4.81212 3.62807 4.63398 3.49669 4.5026C3.36531 4.37122 3.18717 4.29733 3.00136 4.29714Z" fill="#01D9C1"/>
<path d="M7.24621 6.31138C7.24621 6.64677 6.97433 6.91865 6.63895 6.91865V6.91865C6.30356 6.91865 6.03168 6.64677 6.03168 6.31138V5.61737C6.03168 5.28198 6.30356 5.0101 6.63895 5.0101V5.0101C6.97433 5.0101 7.24621 5.28198 7.24621 5.61737V6.31138Z" fill="#01D9C1"/>
</svg>
